# xmcd CD database file
#
# Track frame offsets:
#	150
#	22170
#	45041
#	66611
#	85711
#	109003
#	124920
#	150327
#	174229
#	204842
#	225877
#	243879
#	267584
#
# Disc length: 3902 seconds
#
# Revision: 0
# Processed by: cddbd v1.5.2PL0 Copyright (c) Steve Scherf et al.
# Submitted via: CDex 1.70beta1
#
DISCID=990f3c0d
DTITLE=Aaron Tesser and The New Jazz Affair - Lookin' Ahead
DYEAR=2008
DGENRE=Jazz
TTITLE0=Stella
TTITLE1=Everlasting Rose
TTITLE2=7.40 PM
TTITLE3=You, Me And Jazz
TTITLE4=Instant Love
TTITLE5=Feel
TTITLE6=My Love Is a Song
TTITLE7=Little Darling
TTITLE8=One Plus One
TTITLE9=My Song
TTITLE10=Oko Bop
TTITLE11=Faraway
TTITLE12=Full sail, Soulship
EXTD=YEAR: 2008
EXTT0=
EXTT1=
EXTT2=
EXTT3=
EXTT4=
EXTT5=
EXTT6=
EXTT7=
EXTT8=
EXTT9=
EXTT10=
EXTT11=
EXTT12=
PLAYORDER=
